<svg id="svg" version="1.1" xmlns="http://www.w3.org/2000/svg" xmlns:xlink="http://www.w3.org/1999/xlink" width="400" height="400" viewBox="0, 0, 400,400"><g id="svgg"><path id="path3" d="M113.833 85.000 L 227.750 85.083 227.834 109.500 L 227.918 133.917 227.959 109.476 C 227.996 87.319,227.975 85.026,227.736 84.934 C 227.591 84.879,176.273 84.852,113.695 84.875 L -0.083 84.916 113.833 85.000 M306.788 86.454 C 307.084 86.490,307.609 86.491,307.955 86.455 C 308.300 86.419,308.058 86.389,307.417 86.388 C 306.775 86.387,306.492 86.417,306.788 86.454 M308.875 86.448 C 309.035 86.490,309.298 86.490,309.458 86.448 C 309.619 86.406,309.487 86.372,309.167 86.372 C 308.846 86.372,308.715 86.406,308.875 86.448 M267.875 86.621 C 268.219 86.657,268.781 86.657,269.125 86.621 C 269.469 86.585,269.188 86.556,268.500 86.556 C 267.813 86.556,267.531 86.585,267.875 86.621 M273.127 86.618 C 273.334 86.658,273.634 86.656,273.794 86.615 C 273.953 86.573,273.783 86.540,273.417 86.542 C 273.050 86.544,272.920 86.578,273.127 86.618 M283.368 86.623 C 283.982 86.655,285.032 86.656,285.701 86.624 C 286.370 86.592,285.867 86.566,284.583 86.566 C 283.300 86.565,282.753 86.591,283.368 86.623 M292.794 86.618 C 293.001 86.658,293.301 86.656,293.460 86.615 C 293.620 86.573,293.450 86.540,293.083 86.542 C 292.717 86.544,292.586 86.578,292.794 86.618 M296.042 86.625 C 297.302 86.653,299.365 86.653,300.625 86.625 C 301.885 86.596,300.854 86.573,298.333 86.573 C 295.813 86.573,294.781 86.596,296.042 86.625 M310.560 88.000 C 310.560 88.871,310.588 89.227,310.623 88.792 C 310.657 88.356,310.657 87.644,310.623 87.208 C 310.588 86.773,310.560 87.129,310.560 88.000 M261.723 86.779 C 261.841 86.896,263.864 86.858,263.986 86.737 C 264.024 86.698,263.506 86.667,262.833 86.667 C 262.161 86.667,261.662 86.717,261.723 86.779 M261.732 91.083 C 261.733 92.367,261.759 92.870,261.791 92.201 C 261.822 91.532,261.822 90.482,261.790 89.868 C 261.758 89.253,261.732 89.800,261.732 91.083 M261.705 94.000 C 261.705 94.321,261.740 94.452,261.782 94.292 C 261.823 94.131,261.823 93.869,261.782 93.708 C 261.740 93.548,261.705 93.679,261.705 94.000 M261.709 103.083 C 261.711 103.450,261.745 103.580,261.785 103.373 C 261.824 103.166,261.823 102.866,261.781 102.706 C 261.739 102.547,261.707 102.717,261.709 103.083 M310.705 105.000 C 310.705 105.321,310.740 105.452,310.782 105.292 C 310.823 105.131,310.823 104.869,310.782 104.708 C 310.740 104.548,310.705 104.679,310.705 105.000 M261.721 105.917 C 261.722 106.558,261.752 106.800,261.788 106.455 C 261.824 106.109,261.824 105.584,261.787 105.288 C 261.750 104.992,261.721 105.275,261.721 105.917 M310.723 107.833 C 310.723 108.521,310.752 108.802,310.788 108.458 C 310.824 108.115,310.824 107.552,310.788 107.208 C 310.752 106.865,310.723 107.146,310.723 107.833 M310.742 118.667 C 310.742 122.196,310.764 123.640,310.791 121.875 C 310.818 120.110,310.818 117.223,310.791 115.458 C 310.764 113.694,310.742 115.138,310.742 118.667 M261.890 113.917 C 261.891 114.650,261.920 114.929,261.956 114.537 C 261.991 114.145,261.990 113.545,261.954 113.204 C 261.919 112.863,261.890 113.183,261.890 113.917 M261.904 128.833 C 261.904 130.712,261.928 131.481,261.958 130.542 C 261.987 129.602,261.987 128.065,261.958 127.125 C 261.928 126.185,261.904 126.954,261.904 128.833 M89.500 223.417 C 89.500 272.718,89.538 313.018,89.584 312.972 C 89.693 312.862,89.692 133.970,89.583 133.861 C 89.537 133.815,89.500 174.115,89.500 223.417 M142.225 135.667 C 142.225 136.446,142.254 136.765,142.289 136.375 C 142.324 135.985,142.324 135.348,142.289 134.958 C 142.254 134.569,142.225 134.887,142.225 135.667 M261.889 139.167 C 261.889 139.854,261.919 140.135,261.955 139.792 C 261.991 139.448,261.991 138.885,261.955 138.542 C 261.919 138.198,261.889 138.479,261.889 139.167 M261.889 143.667 C 261.889 144.354,261.919 144.635,261.955 144.292 C 261.991 143.948,261.991 143.385,261.955 143.042 C 261.919 142.698,261.889 142.979,261.889 143.667 M310.896 144.917 C 310.896 145.925,310.924 146.316,310.957 145.786 C 310.990 145.255,310.990 144.430,310.956 143.952 C 310.922 143.474,310.895 143.908,310.896 144.917 M310.895 149.667 C 310.895 150.629,310.923 151.023,310.956 150.542 C 310.990 150.060,310.990 149.273,310.956 148.792 C 310.923 148.310,310.895 148.704,310.895 149.667 M162.215 150.624 C 162.838 150.656,163.813 150.656,164.382 150.623 C 164.951 150.591,164.442 150.564,163.250 150.565 C 162.058 150.565,161.593 150.592,162.215 150.624 M262.042 151.083 C 262.044 151.450,262.078 151.580,262.118 151.373 C 262.158 151.166,262.156 150.866,262.115 150.706 C 262.073 150.547,262.040 150.717,262.042 151.083 M310.889 154.833 C 310.889 155.521,310.919 155.802,310.955 155.458 C 310.991 155.115,310.991 154.552,310.955 154.208 C 310.919 153.865,310.889 154.146,310.889 154.833 M310.902 159.750 C 310.902 161.400,310.927 162.052,310.958 161.200 C 310.988 160.347,310.988 158.997,310.957 158.200 C 310.927 157.402,310.902 158.100,310.902 159.750 M262.069 166.083 C 262.069 167.733,262.094 168.386,262.124 167.533 C 262.155 166.681,262.154 165.331,262.124 164.533 C 262.093 163.736,262.069 164.433,262.069 166.083 M311.039 170.167 C 311.039 170.487,311.073 170.619,311.115 170.458 C 311.157 170.298,311.157 170.035,311.115 169.875 C 311.073 169.715,311.039 169.846,311.039 170.167 M262.042 172.750 C 262.044 173.117,262.078 173.247,262.118 173.040 C 262.158 172.832,262.156 172.532,262.115 172.373 C 262.073 172.214,262.040 172.383,262.042 172.750 M262.062 175.167 C 262.062 176.129,262.089 176.523,262.123 176.042 C 262.157 175.560,262.157 174.773,262.123 174.292 C 262.089 173.810,262.062 174.204,262.062 175.167 M262.042 180.917 C 262.044 181.283,262.078 181.414,262.118 181.206 C 262.158 180.999,262.156 180.699,262.115 180.540 C 262.073 180.380,262.040 180.550,262.042 180.917 M311.042 181.583 C 311.044 181.950,311.078 182.080,311.118 181.873 C 311.158 181.666,311.156 181.366,311.115 181.206 C 311.073 181.047,311.040 181.217,311.042 181.583 M311.056 185.667 C 311.056 186.354,311.085 186.635,311.121 186.292 C 311.157 185.948,311.157 185.385,311.121 185.042 C 311.085 184.698,311.056 184.979,311.056 185.667 M311.069 196.417 C 311.069 198.067,311.094 198.719,311.124 197.867 C 311.155 197.014,311.154 195.664,311.124 194.867 C 311.093 194.069,311.069 194.767,311.069 196.417 M262.240 203.250 C 262.240 205.817,262.263 206.843,262.291 205.532 C 262.320 204.220,262.319 202.120,262.291 200.865 C 262.263 199.610,262.240 200.683,262.240 203.250 M311.083 208.500 C 311.018 209.061,311.000 209.556,311.044 209.599 C 311.087 209.642,311.174 209.217,311.238 208.655 C 311.302 208.092,311.320 207.597,311.278 207.556 C 311.236 207.514,311.148 207.939,311.083 208.500 M262.232 211.250 C 262.233 212.533,262.259 213.036,262.291 212.368 C 262.322 211.699,262.322 210.649,262.290 210.034 C 262.258 209.420,262.232 209.967,262.232 211.250 M311.042 211.250 C 311.044 211.617,311.078 211.747,311.118 211.540 C 311.158 211.332,311.156 211.032,311.115 210.873 C 311.073 210.714,311.040 210.883,311.042 211.250 M262.221 216.917 C 262.222 217.558,262.252 217.800,262.288 217.455 C 262.324 217.109,262.324 216.584,262.287 216.288 C 262.250 215.992,262.221 216.275,262.221 216.917 M311.209 218.250 C 311.211 218.617,311.245 218.747,311.285 218.540 C 311.324 218.332,311.323 218.032,311.281 217.873 C 311.239 217.714,311.207 217.883,311.209 218.250 M311.212 221.667 C 311.212 222.079,311.245 222.248,311.284 222.042 C 311.324 221.835,311.324 221.498,311.284 221.292 C 311.245 221.085,311.212 221.254,311.212 221.667 M311.236 233.083 C 311.236 234.733,311.261 235.386,311.291 234.533 C 311.321 233.681,311.321 232.331,311.291 231.533 C 311.260 230.736,311.235 231.433,311.236 233.083 M262.410 243.167 C 262.410 246.971,262.431 248.527,262.458 246.625 C 262.485 244.723,262.485 241.610,262.458 239.708 C 262.431 237.806,262.410 239.362,262.410 243.167 M311.205 243.333 C 311.205 243.654,311.240 243.785,311.282 243.625 C 311.323 243.465,311.323 243.202,311.282 243.042 C 311.240 242.881,311.205 243.012,311.205 243.333 M311.205 244.500 C 311.205 244.821,311.240 244.952,311.282 244.792 C 311.323 244.631,311.323 244.369,311.282 244.208 C 311.240 244.048,311.205 244.179,311.205 244.500 M311.167 247.417 C 311.167 248.685,311.203 249.686,311.247 249.642 C 311.363 249.526,311.380 245.325,311.264 245.209 C 311.211 245.155,311.167 246.149,311.167 247.417 M376.382 252.124 C 377.004 252.156,377.979 252.156,378.549 252.123 C 379.118 252.091,378.608 252.064,377.417 252.065 C 376.225 252.065,375.759 252.092,376.382 252.124 M311.389 254.333 C 311.389 255.021,311.419 255.302,311.455 254.958 C 311.491 254.615,311.491 254.052,311.455 253.708 C 311.419 253.365,311.389 253.646,311.389 254.333 M262.375 254.083 C 262.377 254.450,262.411 254.580,262.451 254.373 C 262.491 254.166,262.490 253.866,262.448 253.706 C 262.406 253.547,262.374 253.717,262.375 254.083 M311.379 259.333 C 311.379 259.746,311.411 259.915,311.451 259.708 C 311.491 259.502,311.491 259.165,311.451 258.958 C 311.411 258.752,311.379 258.921,311.379 259.333 M371.583 265.342 C 373.775 265.521,375.159 265.512,374.250 265.324 C 373.883 265.248,372.796 265.193,371.833 265.203 L 370.083 265.219 371.583 265.342 M381.969 265.291 C 383.464 265.319,385.864 265.319,387.302 265.291 C 388.740 265.264,387.517 265.241,384.583 265.241 C 381.650 265.241,380.473 265.264,381.969 265.291 M322.375 265.448 C 322.535 265.490,322.798 265.490,322.958 265.448 C 323.119 265.406,322.987 265.372,322.667 265.372 C 322.346 265.372,322.215 265.406,322.375 265.448 M334.548 265.457 C 335.078 265.490,335.903 265.490,336.381 265.456 C 336.859 265.422,336.425 265.395,335.417 265.396 C 334.408 265.396,334.017 265.424,334.548 265.457 M346.302 265.458 C 347.614 265.486,349.714 265.486,350.968 265.458 C 352.223 265.430,351.150 265.407,348.583 265.407 C 346.017 265.407,344.990 265.430,346.302 265.458 M312.633 265.624 C 313.394 265.655,314.594 265.655,315.300 265.624 C 316.006 265.593,315.383 265.567,313.917 265.567 C 312.450 265.568,311.872 265.593,312.633 265.624 M249.377 265.786 C 249.631 265.825,250.006 265.824,250.211 265.784 C 250.416 265.744,250.208 265.713,249.750 265.714 C 249.292 265.716,249.124 265.748,249.377 265.786 M260.131 265.790 C 260.615 265.824,261.365 265.823,261.797 265.789 C 262.230 265.755,261.833 265.727,260.917 265.728 C 260.000 265.728,259.646 265.756,260.131 265.790 M209.294 265.951 C 209.501 265.991,209.801 265.990,209.960 265.948 C 210.120 265.906,209.950 265.874,209.583 265.875 C 209.217 265.877,209.086 265.911,209.294 265.951 M213.121 265.954 C 213.417 265.990,213.942 265.991,214.288 265.955 C 214.634 265.919,214.392 265.889,213.750 265.888 C 213.108 265.887,212.825 265.917,213.121 265.954 M222.867 265.957 C 223.664 265.988,225.014 265.988,225.867 265.958 C 226.719 265.927,226.067 265.902,224.417 265.902 C 222.767 265.902,222.069 265.927,222.867 265.957 M238.129 265.956 C 238.521 265.991,239.121 265.990,239.463 265.954 C 239.804 265.919,239.483 265.890,238.750 265.890 C 238.017 265.891,237.737 265.920,238.129 265.956 M177.125 266.118 C 177.331 266.157,177.669 266.157,177.875 266.118 C 178.081 266.078,177.912 266.045,177.500 266.045 C 177.088 266.045,176.919 266.078,177.125 266.118 M185.625 266.124 C 186.565 266.154,188.102 266.154,189.042 266.124 C 189.981 266.095,189.213 266.070,187.333 266.070 C 185.454 266.070,184.685 266.095,185.625 266.124 M201.375 266.115 C 201.535 266.157,201.798 266.157,201.958 266.115 C 202.119 266.073,201.987 266.039,201.667 266.039 C 201.346 266.039,201.215 266.073,201.375 266.115 M173.076 286.083 C 173.076 289.567,173.098 291.015,173.125 289.303 C 173.152 287.590,173.152 284.740,173.125 282.969 C 173.098 281.199,173.076 282.600,173.076 286.083 M173.039 293.000 C 173.039 293.321,173.073 293.452,173.115 293.292 C 173.157 293.131,173.157 292.869,173.115 292.708 C 173.073 292.548,173.039 292.679,173.039 293.000 M173.056 297.000 C 173.056 297.688,173.085 297.969,173.121 297.625 C 173.157 297.281,173.157 296.719,173.121 296.375 C 173.085 296.031,173.056 296.313,173.056 297.000 M377.802 314.125 C 379.298 314.152,381.698 314.152,383.135 314.125 C 384.573 314.097,383.350 314.074,380.417 314.074 C 377.483 314.074,376.307 314.097,377.802 314.125 M391.875 314.121 C 392.219 314.157,392.781 314.157,393.125 314.121 C 393.469 314.085,393.188 314.056,392.500 314.056 C 391.813 314.056,391.531 314.085,391.875 314.121 M340.448 314.291 C 342.023 314.319,344.648 314.319,346.281 314.291 C 347.914 314.264,346.625 314.242,343.417 314.242 C 340.208 314.242,338.872 314.264,340.448 314.291 M354.381 314.290 C 354.912 314.323,355.737 314.323,356.214 314.289 C 356.692 314.256,356.258 314.229,355.250 314.229 C 354.242 314.229,353.851 314.257,354.381 314.290 M303.958 314.458 C 305.723 314.485,308.610 314.485,310.375 314.458 C 312.140 314.431,310.696 314.409,307.167 314.409 C 303.637 314.409,302.194 314.431,303.958 314.458 M318.542 314.455 C 318.885 314.491,319.448 314.491,319.792 314.455 C 320.135 314.419,319.854 314.389,319.167 314.389 C 318.479 314.389,318.198 314.419,318.542 314.455 M267.458 314.625 C 269.223 314.652,272.110 314.652,273.875 314.625 C 275.640 314.598,274.196 314.576,270.667 314.576 C 267.137 314.576,265.694 314.598,267.458 314.625 M281.214 314.623 C 281.745 314.657,282.570 314.656,283.048 314.623 C 283.526 314.589,283.092 314.562,282.083 314.562 C 281.075 314.563,280.684 314.590,281.214 314.623 M230.792 314.791 C 232.556 314.818,235.444 314.818,237.208 314.791 C 238.973 314.764,237.529 314.742,234.000 314.742 C 230.471 314.742,229.027 314.764,230.792 314.791 M244.625 314.790 C 245.106 314.823,245.894 314.823,246.375 314.790 C 246.856 314.756,246.463 314.728,245.500 314.728 C 244.537 314.728,244.144 314.756,244.625 314.790 M191.717 314.958 C 192.708 314.987,194.283 314.987,195.217 314.958 C 196.152 314.928,195.342 314.904,193.417 314.904 C 191.492 314.904,190.727 314.928,191.717 314.958 M197.294 314.951 C 197.501 314.991,197.801 314.990,197.960 314.948 C 198.120 314.906,197.950 314.874,197.583 314.875 C 197.217 314.877,197.086 314.911,197.294 314.951 M201.963 314.956 C 202.355 314.991,202.955 314.990,203.296 314.954 C 203.637 314.919,203.317 314.890,202.583 314.890 C 201.850 314.891,201.571 314.920,201.963 314.956 M207.621 314.954 C 207.917 314.990,208.442 314.991,208.788 314.955 C 209.134 314.919,208.892 314.889,208.250 314.888 C 207.608 314.887,207.325 314.917,207.621 314.954 M218.960 314.951 C 219.168 314.991,219.468 314.990,219.627 314.948 C 219.786 314.906,219.617 314.874,219.250 314.875 C 218.883 314.877,218.753 314.911,218.960 314.951 " stroke="none" fill="#34bbfc" fill-rule="evenodd"></path><path id="path4" d="" stroke="none" fill="#08acfc" fill-rule="evenodd"></path><path id="path0" d="M228.081 109.500 C 228.081 123.021,228.101 128.552,228.125 121.792 C 228.149 115.031,228.149 103.969,228.125 97.208 C 228.101 90.448,228.081 95.979,228.081 109.500 M0.000 109.500 L 0.000 133.667 44.653 133.667 C 69.212 133.667,89.425 133.712,89.570 133.768 C 89.810 133.860,89.833 141.902,89.833 223.268 L 89.833 312.667 114.000 312.667 L 138.167 312.667 138.167 223.268 C 138.167 141.902,138.190 133.860,138.430 133.768 C 138.575 133.712,158.713 133.667,183.180 133.667 L 227.667 133.667 227.667 109.500 L 227.667 85.333 113.833 85.333 L 0.000 85.333 0.000 109.500 M289.750 86.490 C 289.383 86.550,291.108 86.571,293.583 86.537 C 296.058 86.502,298.158 86.448,298.250 86.417 C 298.563 86.310,290.419 86.380,289.750 86.490 M270.833 86.645 C 270.833 86.780,269.589 86.833,266.417 86.833 L 262.000 86.833 261.990 92.375 C 261.985 95.423,261.920 99.454,261.845 101.333 C 261.771 103.212,261.774 104.791,261.851 104.841 C 262.090 104.995,262.231 132.491,262.019 137.740 C 261.891 140.932,261.886 142.429,262.003 142.502 C 262.247 142.653,262.422 170.817,262.204 174.750 C 262.109 176.450,262.098 178.111,262.177 178.583 C 262.371 179.735,262.571 211.531,262.391 212.667 C 262.312 213.171,262.304 214.221,262.374 215.000 C 262.581 217.291,262.790 265.546,262.594 265.812 C 262.455 266.001,261.070 266.029,254.505 265.978 C 250.148 265.944,240.396 265.980,232.833 266.058 C 224.317 266.145,217.646 266.138,215.308 266.039 C 212.986 265.940,211.157 265.938,210.558 266.032 C 209.562 266.189,181.180 266.310,176.500 266.177 C 175.079 266.136,173.767 266.154,173.583 266.216 C 173.230 266.336,173.146 290.174,173.434 308.271 L 173.538 314.793 187.311 314.709 C 196.280 314.654,201.897 314.686,203.417 314.802 C 204.847 314.911,206.072 314.922,206.583 314.831 C 208.086 314.564,239.002 314.413,240.892 314.663 C 242.137 314.828,242.563 314.834,242.654 314.687 C 242.744 314.541,251.151 314.452,276.429 314.331 C 294.939 314.242,325.871 314.093,345.167 314.001 C 364.462 313.909,384.694 313.833,390.125 313.833 L 400.000 313.833 400.000 289.583 L 400.000 265.333 399.542 265.321 C 398.482 265.293,396.356 265.169,395.555 265.088 C 395.081 265.040,392.381 264.983,389.555 264.963 C 386.729 264.942,385.148 264.902,386.042 264.873 L 387.667 264.821 387.700 263.036 L 387.733 261.250 387.836 263.083 L 387.940 264.917 387.928 263.083 L 387.917 261.250 381.565 261.289 L 375.214 261.329 375.107 260.307 C 375.048 259.744,375.000 259.108,375.000 258.892 L 375.000 258.500 379.542 258.462 L 384.083 258.425 379.500 258.333 L 374.917 258.242 380.292 258.204 L 385.667 258.167 385.667 256.502 L 385.667 254.838 380.375 254.794 L 375.083 254.750 375.059 253.383 L 375.035 252.015 381.476 252.049 L 387.917 252.083 387.964 250.375 L 388.012 248.667 379.714 248.628 L 371.417 248.590 377.417 248.500 L 383.417 248.410 377.415 248.372 L 371.414 248.333 371.379 256.667 C 371.358 261.933,371.404 265.000,371.506 265.000 C 371.594 265.000,371.667 264.925,371.667 264.833 C 371.667 264.573,375.621 264.614,375.708 264.875 C 375.762 265.036,378.084 265.105,386.141 265.182 C 391.841 265.237,396.560 265.338,396.627 265.407 C 396.695 265.475,387.938 265.528,377.167 265.525 C 344.510 265.513,315.185 265.612,313.324 265.740 C 310.971 265.902,311.142 266.306,311.316 260.986 C 311.400 258.411,311.398 256.544,311.311 256.489 C 311.063 256.331,310.928 229.104,311.149 223.679 C 311.282 220.405,311.288 218.909,311.169 218.835 C 310.885 218.660,310.736 191.537,310.990 186.436 C 311.140 183.431,311.146 182.257,311.014 182.175 C 310.748 182.011,310.562 152.190,310.808 149.236 C 310.935 147.713,310.938 146.732,310.818 145.986 C 310.604 144.659,310.519 111.493,310.727 110.708 C 310.817 110.369,310.810 110.167,310.709 110.167 C 310.606 110.167,310.501 105.831,310.424 98.375 C 310.356 91.890,310.278 86.559,310.250 86.530 C 310.222 86.500,306.723 86.567,302.474 86.678 C 294.862 86.877,273.360 86.797,271.625 86.563 C 271.085 86.490,270.833 86.516,270.833 86.645 M310.532 92.750 C 310.528 93.300,310.585 94.087,310.658 94.500 C 310.790 95.240,310.792 95.235,310.803 94.167 C 310.809 93.571,310.752 92.783,310.676 92.417 C 310.544 91.776,310.538 91.790,310.532 92.750 M261.692 119.500 C 261.692 120.737,261.748 122.087,261.817 122.500 C 261.886 122.914,261.912 121.981,261.874 120.417 C 261.791 116.945,261.693 116.455,261.692 119.500 M310.791 130.167 C 310.840 131.129,310.907 131.948,310.940 131.986 C 311.059 132.123,310.978 129.735,310.841 129.083 C 310.750 128.648,310.732 129.025,310.791 130.167 M138.375 223.508 L 138.416 313.083 138.458 231.875 L 138.500 150.667 140.323 150.667 L 142.146 150.667 142.264 149.880 C 142.329 149.447,142.337 147.985,142.281 146.630 L 142.180 144.167 146.836 144.167 L 151.493 144.167 151.538 147.342 L 151.583 150.517 153.375 150.550 L 155.167 150.583 155.167 142.292 L 155.167 134.000 153.458 134.032 L 151.750 134.065 153.417 134.167 L 155.083 134.269 153.458 134.301 L 151.833 134.333 151.797 137.458 L 151.761 140.583 151.672 137.250 L 151.583 133.917 151.440 136.944 C 151.361 138.609,151.342 140.046,151.399 140.138 C 151.595 140.456,150.118 140.534,146.193 140.413 L 142.250 140.292 142.250 137.214 C 142.250 134.061,142.027 132.741,141.966 135.532 L 141.932 137.083 141.876 135.708 L 141.820 134.333 140.277 134.333 C 139.299 134.333,138.660 134.260,138.533 134.133 C 138.378 133.978,138.343 153.839,138.375 223.508 M139.464 134.123 C 139.948 134.157,140.698 134.156,141.131 134.122 C 141.563 134.088,141.167 134.060,140.250 134.061 C 139.333 134.061,138.980 134.089,139.464 134.123 M156.782 134.125 C 156.743 134.194,156.763 137.962,156.826 142.500 L 156.942 150.750 156.971 142.375 C 156.987 137.769,156.967 134.000,156.927 134.000 C 156.886 134.000,156.821 134.056,156.782 134.125 M161.137 134.125 C 163.366 134.151,166.966 134.151,169.137 134.125 C 171.307 134.099,169.483 134.077,165.083 134.077 C 160.683 134.077,158.907 134.099,161.137 134.125 M173.167 135.750 L 173.167 137.500 166.708 137.460 L 160.250 137.421 166.625 137.375 L 173.000 137.329 173.000 135.831 L 173.000 134.333 165.083 134.333 L 157.167 134.333 157.167 142.481 L 157.167 150.628 165.208 150.552 L 173.250 150.475 173.297 148.654 L 173.344 146.833 171.297 146.869 L 169.250 146.905 171.208 146.958 L 173.167 147.011 173.167 148.714 L 173.167 150.417 167.125 150.333 L 161.083 150.250 167.042 150.206 L 173.000 150.162 173.000 148.665 L 173.000 147.167 171.177 147.167 C 170.141 147.167,169.309 147.095,169.250 147.000 C 169.186 146.896,167.526 146.833,164.823 146.833 L 160.500 146.833 160.469 145.542 L 160.438 144.250 160.333 145.667 L 160.229 147.083 160.198 145.583 L 160.167 144.083 165.583 144.129 L 171.000 144.176 171.000 142.232 L 171.000 140.288 169.391 140.406 C 168.507 140.471,166.144 140.470,164.141 140.405 L 160.500 140.285 160.500 138.976 L 160.500 137.667 166.917 137.667 L 173.333 137.667 173.333 135.833 C 173.333 134.825,173.296 134.000,173.250 134.000 C 173.204 134.000,173.167 134.787,173.167 135.750 M155.000 143.458 L 155.000 150.417 153.333 150.417 L 151.667 150.417 151.704 147.167 L 151.742 143.917 151.791 147.042 L 151.841 150.167 153.337 150.167 L 154.833 150.167 154.833 143.333 C 154.833 139.575,154.871 136.500,154.917 136.500 C 154.962 136.500,155.000 139.631,155.000 143.458 M160.288 139.880 C 160.254 140.267,160.225 139.908,160.226 139.083 C 160.226 138.258,160.255 137.942,160.289 138.380 C 160.324 138.818,160.323 139.493,160.288 139.880 M170.798 142.292 L 170.764 144.083 170.709 142.458 L 170.655 140.833 165.536 140.795 L 160.417 140.757 165.583 140.667 C 168.425 140.617,170.769 140.559,170.792 140.538 C 170.815 140.517,170.818 141.306,170.798 142.292 M149.208 140.791 C 147.902 140.819,145.765 140.819,144.458 140.791 C 143.152 140.763,144.221 140.740,146.833 140.740 C 149.446 140.740,150.515 140.763,149.208 140.791 M261.859 156.167 C 261.858 157.404,261.915 158.754,261.984 159.167 C 262.053 159.581,262.078 158.647,262.041 157.083 C 261.957 153.612,261.860 153.122,261.859 156.167 M310.950 167.250 C 310.998 168.533,311.066 169.615,311.102 169.653 C 311.229 169.790,311.145 166.236,311.005 165.583 C 310.914 165.159,310.894 165.764,310.950 167.250 M262.038 193.333 C 262.031 194.204,262.085 195.254,262.158 195.667 L 262.292 196.417 262.296 195.500 C 262.298 194.996,262.244 193.946,262.176 193.167 L 262.052 191.750 262.038 193.333 M311.127 204.417 C 311.163 205.975,311.218 207.325,311.250 207.417 C 311.368 207.760,311.309 202.889,311.187 202.250 C 311.118 201.883,311.090 202.858,311.127 204.417 M262.200 230.500 C 262.195 231.096,262.251 231.921,262.325 232.333 C 262.456 233.071,262.458 233.065,262.467 232.000 C 262.471 231.404,262.415 230.579,262.342 230.167 C 262.211 229.429,262.208 229.435,262.200 230.500 M311.295 241.417 C 311.326 243.250,311.377 244.862,311.407 245.000 C 311.519 245.513,311.471 239.553,311.357 238.833 C 311.291 238.421,311.264 239.583,311.295 241.417 M313.500 248.510 C 312.629 248.561,315.498 248.617,319.875 248.635 C 324.957 248.655,327.833 248.608,327.833 248.504 C 327.833 248.333,316.435 248.337,313.500 248.510 M328.000 250.167 L 327.930 252.083 327.876 250.458 L 327.821 248.833 319.911 248.833 L 312.000 248.833 312.000 256.750 L 312.000 264.667 319.917 264.667 L 327.833 264.667 327.833 263.169 L 327.833 261.671 321.458 261.627 L 315.083 261.583 315.073 260.041 L 315.063 258.499 315.121 260.000 L 315.179 261.500 321.548 261.460 L 327.917 261.421 321.625 261.375 L 315.333 261.329 315.333 260.019 L 315.333 258.709 319.792 258.619 C 322.244 258.569,324.587 258.541,325.000 258.556 L 325.750 258.583 325.797 256.708 L 325.844 254.833 320.589 254.833 L 315.333 254.833 315.333 253.500 L 315.333 252.167 321.672 252.167 C 326.762 252.167,328.027 252.123,328.095 251.947 C 328.141 251.826,328.155 250.945,328.125 249.989 L 328.070 248.250 328.000 250.167 M333.583 248.517 C 331.856 248.690,330.615 249.513,330.047 250.863 C 329.780 251.499,329.742 261.596,330.004 262.500 C 330.166 263.058,330.855 264.000,331.101 264.000 C 331.166 264.000,331.106 263.869,330.968 263.708 C 330.830 263.548,330.660 263.304,330.590 263.167 C 330.521 263.029,330.652 263.142,330.883 263.417 C 331.113 263.692,331.272 263.965,331.236 264.023 C 331.134 264.188,331.864 264.614,332.594 264.815 C 333.020 264.933,333.269 264.939,333.306 264.832 C 333.341 264.727,335.073 264.680,338.056 264.704 L 342.750 264.742 338.083 264.833 L 333.417 264.925 338.189 264.962 C 342.751 264.998,344.739 264.818,343.815 264.452 C 343.674 264.395,343.661 264.355,343.782 264.346 C 343.891 264.339,344.027 264.410,344.085 264.503 C 344.199 264.688,345.167 264.198,345.167 263.954 C 345.167 263.877,345.073 263.868,344.958 263.935 C 344.844 264.002,344.893 263.894,345.067 263.695 C 345.396 263.321,345.597 263.208,345.417 263.500 C 345.360 263.592,345.384 263.667,345.470 263.667 C 345.904 263.667,346.333 262.018,346.302 260.469 L 346.270 258.917 346.167 260.417 L 346.063 261.917 346.031 260.625 L 346.000 259.333 344.500 259.333 L 343.000 259.333 343.000 260.230 C 343.000 260.888,342.923 261.184,342.708 261.347 C 342.460 261.534,342.448 261.532,342.625 261.334 C 342.755 261.188,342.821 260.688,342.802 260.008 L 342.770 258.917 342.709 259.911 C 342.675 260.458,342.568 261.001,342.470 261.119 C 342.244 261.392,334.325 261.430,333.822 261.161 C 333.410 260.940,333.313 252.696,333.719 252.359 C 333.955 252.163,342.526 252.060,342.832 252.249 C 342.924 252.306,343.000 252.761,343.000 253.260 L 343.000 254.167 344.493 254.167 L 345.986 254.167 346.043 252.875 L 346.100 251.583 346.133 252.952 L 346.167 254.321 344.583 254.379 L 342.999 254.436 344.625 254.426 L 346.250 254.417 346.301 253.083 C 346.365 251.373,346.101 250.434,345.339 249.672 C 344.744 249.078,343.139 248.393,343.028 248.686 C 342.997 248.768,340.810 248.817,338.111 248.796 L 333.250 248.758 338.083 248.667 C 340.742 248.617,342.729 248.557,342.500 248.535 C 341.529 248.439,334.500 248.425,333.583 248.517 M347.857 251.792 C 347.869 253.694,347.930 257.425,347.992 260.083 C 348.099 264.738,348.105 264.610,348.135 256.625 C 348.156 251.187,348.109 248.333,348.000 248.333 C 347.893 248.333,347.842 249.582,347.857 251.792 M349.917 248.500 L 351.583 248.602 349.958 248.634 L 348.333 248.667 348.333 256.667 L 348.333 264.667 349.833 264.667 L 351.333 264.667 351.333 261.583 L 351.333 258.500 356.083 258.500 L 360.833 258.500 360.833 261.750 L 360.833 265.000 362.667 265.000 L 364.500 265.000 364.461 256.625 L 364.421 248.250 364.333 256.583 L 364.245 264.917 364.206 256.792 L 364.167 248.667 362.670 248.667 L 361.174 248.667 361.129 251.875 L 361.083 255.083 356.250 255.087 L 351.417 255.091 356.208 255.043 L 361.000 254.995 360.962 251.622 L 360.924 248.250 360.875 251.542 L 360.826 254.833 356.246 254.833 L 351.667 254.833 351.667 251.583 L 351.667 248.333 349.958 248.366 L 348.250 248.398 349.917 248.500 M366.041 253.792 C 366.018 256.794,366.062 260.563,366.139 262.167 C 366.257 264.606,366.285 263.712,366.307 256.708 C 366.321 252.102,366.277 248.334,366.208 248.334 C 366.140 248.334,366.064 250.790,366.041 253.792 M368.000 248.500 L 369.583 248.603 368.042 248.635 L 366.500 248.667 366.500 256.667 L 366.500 264.667 368.000 264.667 L 369.500 264.667 369.538 260.208 L 369.575 255.750 369.667 260.417 C 369.747 264.523,369.762 264.078,369.796 256.708 L 369.833 248.333 368.125 248.365 L 366.417 248.397 368.000 248.500 M311.744 256.750 C 311.744 261.333,311.765 263.184,311.792 260.863 C 311.818 258.542,311.818 254.792,311.792 252.530 C 311.765 250.268,311.744 252.167,311.744 256.750 M331.052 249.875 C 330.865 250.081,330.629 250.400,330.528 250.583 C 330.426 250.767,330.341 250.829,330.338 250.721 C 330.333 250.515,331.127 249.500,331.294 249.500 C 331.348 249.500,331.239 249.669,331.052 249.875 M262.372 250.833 C 262.372 251.154,262.406 251.285,262.448 251.125 C 262.490 250.965,262.490 250.702,262.448 250.542 C 262.406 250.381,262.372 250.512,262.372 250.833 M345.986 251.240 C 345.974 251.516,345.945 251.495,345.837 251.138 C 345.763 250.893,345.651 250.593,345.589 250.471 C 345.526 250.350,345.593 250.396,345.738 250.574 C 345.882 250.751,345.994 251.051,345.986 251.240 M387.804 251.623 C 387.753 251.899,387.368 251.912,381.333 251.830 L 374.917 251.744 381.292 251.705 L 387.667 251.667 387.686 251.208 C 387.698 250.930,387.735 250.864,387.781 251.040 C 387.823 251.199,387.833 251.462,387.804 251.623 M351.456 254.042 C 351.423 254.523,351.395 254.129,351.395 253.167 C 351.395 252.204,351.423 251.810,351.456 252.292 C 351.490 252.773,351.490 253.560,351.456 254.042 M330.125 259.385 C 330.097 260.778,330.074 259.592,330.074 256.750 C 330.074 253.908,330.097 252.769,330.125 254.219 C 330.153 255.668,330.152 257.993,330.125 259.385 M317.542 251.958 L 315.167 252.009 315.133 253.546 L 315.099 255.083 315.042 253.681 C 314.962 251.694,314.778 251.828,317.536 251.870 L 319.917 251.907 317.542 251.958 M337.125 251.957 C 336.506 251.989,335.494 251.989,334.875 251.957 C 334.256 251.925,334.762 251.899,336.000 251.899 C 337.237 251.899,337.744 251.925,337.125 251.957 M374.788 254.213 C 374.754 254.600,374.725 254.242,374.726 253.417 C 374.726 252.592,374.755 252.275,374.789 252.713 C 374.824 253.152,374.823 253.827,374.788 254.213 M342.627 253.218 C 342.717 254.669,342.805 254.783,342.820 253.468 C 342.827 252.855,342.773 252.315,342.698 252.270 C 342.624 252.224,342.592 252.651,342.627 253.218 M333.544 261.320 C 333.726 261.553,333.716 261.557,333.458 261.355 C 333.192 261.146,333.170 260.744,333.205 256.688 L 333.244 252.250 333.292 256.653 C 333.326 259.827,333.396 261.130,333.544 261.320 M325.633 257.536 L 325.583 258.417 320.417 258.330 L 315.250 258.243 320.375 258.205 L 325.500 258.167 325.531 256.542 C 325.549 255.591,325.587 255.277,325.623 255.786 C 325.656 256.263,325.661 257.051,325.633 257.536 M382.969 255.125 C 381.531 255.152,379.131 255.152,377.635 255.125 C 376.140 255.097,377.317 255.074,380.250 255.074 C 383.183 255.074,384.407 255.097,382.969 255.125 M361.089 261.500 L 361.094 264.750 361.043 261.544 L 360.993 258.338 356.246 258.290 L 351.500 258.242 356.292 258.246 L 361.083 258.250 361.089 261.500 M384.544 258.453 C 384.797 258.491,385.172 258.490,385.377 258.451 C 385.582 258.411,385.375 258.380,384.917 258.381 C 384.458 258.382,384.291 258.415,384.544 258.453 M351.570 261.833 C 351.570 263.621,351.594 264.352,351.624 263.458 C 351.654 262.565,351.654 261.102,351.624 260.208 C 351.594 259.315,351.570 260.046,351.570 261.833 M343.708 259.123 C 344.144 259.157,344.856 259.157,345.292 259.123 C 345.727 259.088,345.371 259.060,344.500 259.060 C 343.629 259.060,343.273 259.088,343.708 259.123 M328.000 263.054 L 328.000 264.830 319.958 264.875 L 311.917 264.920 320.116 264.960 L 328.315 265.000 328.218 263.208 C 328.092 260.883,328.000 260.818,328.000 263.054 M340.198 261.625 C 338.979 261.653,337.029 261.653,335.865 261.624 C 334.702 261.596,335.700 261.573,338.083 261.573 C 340.467 261.573,341.418 261.596,340.198 261.625 M339.917 265.315 C 339.266 265.414,349.344 265.375,350.500 265.274 C 350.821 265.246,348.721 265.221,345.833 265.218 C 342.946 265.216,340.283 265.260,339.917 265.315 M376.294 265.285 C 376.501 265.324,376.801 265.323,376.960 265.281 C 377.120 265.239,376.950 265.207,376.583 265.209 C 376.217 265.211,376.086 265.245,376.294 265.285 M311.875 265.453 C 312.127 265.491,312.540 265.491,312.792 265.453 C 313.044 265.415,312.837 265.383,312.333 265.383 C 311.829 265.383,311.623 265.415,311.875 265.453 M358.625 265.615 C 358.465 265.657,358.202 265.657,358.042 265.615 C 357.881 265.573,358.012 265.539,358.333 265.539 C 358.654 265.539,358.785 265.573,358.625 265.615 M230.167 265.838 C 229.846 265.908,230.858 265.926,232.417 265.877 C 233.975 265.828,235.281 265.761,235.319 265.727 C 235.453 265.611,230.745 265.712,230.167 265.838 M193.500 265.990 C 193.179 266.051,194.154 266.073,195.667 266.038 C 197.179 266.003,198.492 265.948,198.583 265.917 C 198.900 265.808,194.082 265.878,193.500 265.990 M172.867 274.000 C 172.862 274.596,172.918 275.421,172.991 275.833 C 173.123 276.571,173.125 276.565,173.133 275.500 C 173.138 274.904,173.082 274.079,173.009 273.667 C 172.877 272.929,172.875 272.935,172.867 274.000 M173.042 294.083 C 173.044 294.450,173.078 294.580,173.118 294.373 C 173.158 294.166,173.156 293.866,173.115 293.706 C 173.073 293.547,173.040 293.717,173.042 294.083 M173.012 311.115 C 173.047 312.431,173.291 313.124,173.312 311.968 C 173.324 311.355,173.258 310.807,173.167 310.750 C 173.070 310.690,173.005 310.843,173.012 311.115 M101.875 312.958 C 108.544 312.982,119.456 312.982,126.125 312.958 C 132.794 312.934,127.337 312.914,114.000 312.914 C 100.662 312.914,95.206 312.934,101.875 312.958 M368.417 314.165 C 369.749 314.265,387.004 314.350,386.750 314.256 C 386.658 314.221,382.233 314.167,376.917 314.135 C 371.600 314.103,367.775 314.117,368.417 314.165 M388.127 314.118 C 388.334 314.158,388.634 314.156,388.794 314.115 C 388.953 314.073,388.783 314.040,388.417 314.042 C 388.050 314.044,387.920 314.078,388.127 314.118 M331.834 314.375 C 331.833 314.533,332.530 314.516,333.500 314.335 C 334.180 314.209,334.137 314.198,333.042 314.223 C 332.378 314.238,331.834 314.306,331.834 314.375 M351.627 314.285 C 351.834 314.324,352.134 314.323,352.294 314.281 C 352.453 314.239,352.283 314.207,351.917 314.209 C 351.550 314.211,351.420 314.245,351.627 314.285 M295.250 314.500 C 295.128 314.697,295.920 314.701,297.000 314.509 C 297.714 314.381,297.692 314.374,296.552 314.354 C 295.892 314.343,295.307 314.408,295.250 314.500 M314.875 314.448 C 315.035 314.490,315.298 314.490,315.458 314.448 C 315.619 314.406,315.487 314.372,315.167 314.372 C 314.846 314.372,314.715 314.406,314.875 314.448 M338.708 314.458 C 340.610 314.485,343.723 314.485,345.625 314.458 C 347.527 314.431,345.971 314.410,342.167 314.410 C 338.362 314.410,336.806 314.431,338.708 314.458 M258.083 314.685 C 257.529 314.769,257.599 314.788,258.500 314.797 C 259.096 314.804,259.921 314.746,260.333 314.669 C 261.261 314.496,259.232 314.510,258.083 314.685 M278.621 314.620 C 278.917 314.657,279.442 314.658,279.788 314.622 C 280.134 314.586,279.892 314.555,279.250 314.555 C 278.608 314.554,278.325 314.583,278.621 314.620 M221.000 314.833 L 219.750 314.940 221.333 314.958 C 222.204 314.967,223.254 314.915,223.667 314.842 C 224.637 314.669,222.986 314.664,221.000 314.833 M184.250 315.000 L 182.917 315.106 184.667 315.126 C 185.629 315.138,186.717 315.085,187.083 315.010 C 187.921 314.836,186.384 314.831,184.250 315.000 " stroke="none" fill="#04acfc" fill-rule="evenodd"></path><path id="path1" d="M300.292 86.458 C 301.415 86.487,303.252 86.487,304.375 86.458 C 305.498 86.429,304.579 86.405,302.333 86.405 C 300.087 86.405,299.169 86.429,300.292 86.458 M309.875 86.448 C 310.035 86.490,310.298 86.490,310.458 86.448 C 310.619 86.406,310.487 86.372,310.167 86.372 C 309.846 86.372,309.715 86.406,309.875 86.448 M263.042 86.624 C 263.844 86.655,265.156 86.655,265.958 86.624 C 266.760 86.594,266.104 86.569,264.500 86.569 C 262.896 86.569,262.240 86.594,263.042 86.624 M276.042 86.625 C 277.210 86.653,279.123 86.653,280.292 86.625 C 281.460 86.596,280.504 86.572,278.167 86.572 C 275.829 86.572,274.873 86.596,276.042 86.625 M261.739 98.500 C 261.739 100.746,261.762 101.665,261.791 100.542 C 261.820 99.419,261.820 97.581,261.791 96.458 C 261.762 95.335,261.739 96.254,261.739 98.500 M310.740 99.833 C 310.740 102.446,310.763 103.515,310.791 102.208 C 310.819 100.902,310.819 98.765,310.791 97.458 C 310.763 96.152,310.740 97.221,310.740 99.833 M310.709 106.083 C 310.711 106.450,310.745 106.580,310.785 106.373 C 310.824 106.166,310.823 105.866,310.781 105.706 C 310.739 105.547,310.707 105.717,310.709 106.083 M261.740 111.583 C 261.740 114.150,261.763 115.177,261.791 113.865 C 261.820 112.553,261.819 110.453,261.791 109.198 C 261.763 107.943,261.740 109.017,261.740 111.583 M261.902 135.083 C 261.902 136.733,261.927 137.386,261.958 136.533 C 261.988 135.681,261.988 134.331,261.957 133.533 C 261.927 132.736,261.902 133.433,261.902 135.083 M310.907 138.083 C 310.907 140.925,310.930 142.111,310.958 140.719 C 310.986 139.327,310.986 137.002,310.958 135.552 C 310.930 134.103,310.908 135.242,310.907 138.083 M22.278 133.958 C 34.577 133.982,54.752 133.982,67.112 133.958 C 79.471 133.935,69.408 133.915,44.750 133.915 C 20.092 133.915,9.979 133.935,22.278 133.958 M141.614 133.958 C 143.372 133.985,146.297 133.985,148.114 133.958 C 149.930 133.931,148.492 133.909,144.917 133.909 C 141.342 133.909,139.855 133.931,141.614 133.958 M152.800 133.957 C 153.560 133.988,154.760 133.988,155.466 133.957 C 156.172 133.926,155.550 133.901,154.083 133.901 C 152.617 133.901,152.039 133.927,152.800 133.957 M174.528 133.958 C 184.306 133.982,200.356 133.982,210.195 133.958 C 220.034 133.935,212.033 133.915,192.417 133.915 C 172.800 133.915,164.750 133.935,174.528 133.958 M261.907 149.417 C 261.907 151.983,261.930 153.010,261.958 151.698 C 261.986 150.386,261.986 148.286,261.958 147.032 C 261.930 145.777,261.907 146.850,261.907 149.417 M152.542 150.623 C 152.977 150.657,153.690 150.657,154.125 150.623 C 154.560 150.588,154.204 150.560,153.333 150.560 C 152.462 150.560,152.106 150.588,152.542 150.623 M170.631 150.623 C 171.115 150.657,171.865 150.656,172.297 150.622 C 172.730 150.588,172.333 150.560,171.417 150.561 C 170.500 150.561,170.146 150.589,170.631 150.623 M310.889 152.500 C 310.889 153.188,310.919 153.469,310.955 153.125 C 310.991 152.781,310.991 152.219,310.955 151.875 C 310.919 151.531,310.889 151.813,310.889 152.500 M262.053 171.167 C 262.053 171.762,262.084 172.006,262.121 171.708 C 262.158 171.410,262.158 170.923,262.121 170.625 C 262.084 170.327,262.053 170.571,262.053 171.167 M311.074 175.833 C 311.074 178.721,311.097 179.902,311.125 178.458 C 311.152 177.015,311.152 174.652,311.125 173.208 C 311.097 171.765,311.074 172.946,311.074 175.833 M262.074 186.583 C 262.074 189.425,262.097 190.611,262.125 189.219 C 262.152 187.827,262.153 185.502,262.125 184.052 C 262.097 182.603,262.074 183.742,262.074 186.583 M311.066 189.083 C 311.066 190.367,311.092 190.870,311.124 190.201 C 311.156 189.532,311.155 188.482,311.123 187.868 C 311.091 187.253,311.065 187.800,311.066 189.083 M311.039 193.000 C 311.039 193.321,311.073 193.452,311.115 193.292 C 311.157 193.131,311.157 192.869,311.115 192.708 C 311.073 192.548,311.039 192.679,311.039 193.000 M262.209 208.417 C 262.211 208.783,262.245 208.914,262.285 208.706 C 262.324 208.499,262.323 208.199,262.281 208.040 C 262.239 207.880,262.207 208.050,262.209 208.417 M311.240 213.083 C 311.240 215.650,311.263 216.677,311.291 215.365 C 311.320 214.053,311.319 211.953,311.291 210.698 C 311.263 209.443,311.240 210.517,311.240 213.083 M262.242 223.667 C 262.242 226.829,262.264 228.123,262.291 226.542 C 262.319 224.960,262.319 222.373,262.291 220.792 C 262.264 219.210,262.242 220.504,262.242 223.667 M311.239 226.250 C 311.239 228.450,311.262 229.327,311.291 228.199 C 311.320 227.071,311.320 225.271,311.291 224.199 C 311.262 223.127,311.238 224.050,311.239 226.250 M311.404 249.750 C 311.404 251.675,311.428 252.440,311.458 251.449 C 311.487 250.459,311.487 248.884,311.458 247.949 C 311.428 247.015,311.404 247.825,311.404 249.750 M316.125 248.457 C 316.698 248.489,317.635 248.489,318.208 248.457 C 318.781 248.424,318.313 248.398,317.167 248.398 C 316.021 248.398,315.552 248.424,316.125 248.457 M320.382 248.457 C 321.004 248.489,321.979 248.489,322.549 248.457 C 323.118 248.424,322.608 248.398,321.417 248.398 C 320.225 248.398,319.759 248.425,320.382 248.457 M335.380 248.456 C 335.818 248.490,336.493 248.490,336.880 248.455 C 337.267 248.420,336.908 248.392,336.083 248.392 C 335.258 248.393,334.942 248.422,335.380 248.456 M338.715 248.457 C 339.338 248.489,340.313 248.489,340.882 248.457 C 341.451 248.424,340.942 248.398,339.750 248.398 C 338.558 248.398,338.093 248.425,338.715 248.457 M262.408 260.083 C 262.408 263.108,262.430 264.369,262.458 262.886 C 262.486 261.402,262.486 258.927,262.458 257.386 C 262.431 255.844,262.408 257.058,262.408 260.083 M311.402 262.750 C 311.401 264.308,311.426 264.968,311.457 264.217 C 311.488 263.465,311.488 262.190,311.458 261.383 C 311.427 260.577,311.402 261.192,311.402 262.750 M396.534 265.123 C 397.149 265.155,398.199 265.156,398.868 265.124 C 399.536 265.092,399.033 265.066,397.750 265.066 C 396.467 265.065,395.920 265.091,396.534 265.123 M353.621 265.287 C 353.917 265.324,354.442 265.324,354.788 265.288 C 355.134 265.252,354.892 265.222,354.250 265.221 C 353.608 265.221,353.325 265.250,353.621 265.287 M361.698 265.291 C 363.227 265.319,365.777 265.319,367.364 265.291 C 368.951 265.264,367.700 265.242,364.583 265.241 C 361.467 265.241,360.168 265.264,361.698 265.291 M314.884 265.458 C 315.874 265.487,317.449 265.487,318.384 265.458 C 319.319 265.428,318.508 265.404,316.583 265.404 C 314.658 265.404,313.894 265.428,314.884 265.458 M325.458 265.458 C 326.765 265.486,328.902 265.486,330.208 265.458 C 331.515 265.430,330.446 265.407,327.833 265.407 C 325.221 265.407,324.152 265.430,325.458 265.458 M332.875 265.448 C 333.035 265.490,333.298 265.490,333.458 265.448 C 333.619 265.406,333.487 265.372,333.167 265.372 C 332.846 265.372,332.715 265.406,332.875 265.448 M239.052 265.791 C 240.502 265.819,242.827 265.819,244.219 265.791 C 245.611 265.763,244.425 265.741,241.583 265.741 C 238.742 265.741,237.603 265.764,239.052 265.791 M252.700 265.791 C 253.497 265.821,254.847 265.821,255.700 265.791 C 256.552 265.761,255.900 265.736,254.250 265.736 C 252.600 265.735,251.902 265.760,252.700 265.791 M258.542 265.782 C 258.702 265.823,258.965 265.823,259.125 265.782 C 259.285 265.740,259.154 265.705,258.833 265.705 C 258.512 265.705,258.381 265.740,258.542 265.782 M201.208 265.958 C 202.652 265.986,205.015 265.986,206.458 265.958 C 207.902 265.930,206.721 265.908,203.833 265.908 C 200.946 265.908,199.765 265.930,201.208 265.958 M216.208 265.957 C 217.010 265.988,218.323 265.988,219.125 265.957 C 219.927 265.927,219.271 265.902,217.667 265.902 C 216.063 265.902,215.406 265.927,216.208 265.957 M172.866 269.542 C 172.900 273.125,172.962 272.711,173.040 268.375 C 173.064 267.068,173.027 266.000,172.958 266.000 C 172.890 266.000,172.848 267.594,172.866 269.542 M179.796 266.122 C 180.188 266.157,180.788 266.157,181.129 266.121 C 181.471 266.085,181.150 266.057,180.417 266.057 C 179.683 266.058,179.404 266.087,179.796 266.122 M173.076 304.417 C 173.076 307.900,173.098 309.349,173.125 307.636 C 173.152 305.923,173.152 303.073,173.125 301.303 C 173.098 299.532,173.076 300.933,173.076 304.417 M395.208 314.124 C 396.102 314.154,397.565 314.154,398.458 314.124 C 399.352 314.094,398.621 314.070,396.833 314.070 C 395.046 314.070,394.315 314.094,395.208 314.124 M360.136 314.291 C 361.907 314.319,364.757 314.318,366.469 314.291 C 368.182 314.264,366.733 314.242,363.250 314.242 C 359.767 314.242,358.365 314.264,360.136 314.291 M323.114 314.458 C 324.690 314.485,327.315 314.485,328.948 314.458 C 330.581 314.431,329.292 314.408,326.083 314.408 C 322.875 314.408,321.539 314.431,323.114 314.458 M286.625 314.625 C 288.206 314.652,290.794 314.652,292.375 314.625 C 293.956 314.597,292.662 314.575,289.500 314.575 C 286.337 314.575,285.044 314.597,286.625 314.625 M249.719 314.791 C 251.168 314.819,253.493 314.819,254.885 314.791 C 256.278 314.763,255.092 314.741,252.250 314.741 C 249.408 314.741,248.269 314.764,249.719 314.791 M199.542 314.955 C 199.885 314.991,200.448 314.991,200.792 314.955 C 201.135 314.919,200.854 314.889,200.167 314.889 C 199.479 314.889,199.198 314.919,199.542 314.955 M211.625 314.958 C 212.931 314.986,215.069 314.986,216.375 314.958 C 217.681 314.930,216.612 314.907,214.000 314.907 C 211.387 314.907,210.319 314.930,211.625 314.958 M175.384 315.125 C 176.467 315.154,178.192 315.154,179.218 315.124 C 180.244 315.095,179.358 315.071,177.250 315.071 C 175.142 315.072,174.302 315.095,175.384 315.125 " stroke="none" fill="#7dcdfc" fill-rule="evenodd"></path><path id="path2" d="M0.000 85.167 C 0.000 85.278,38.000 85.333,113.833 85.333 L 227.667 85.333 227.667 109.500 L 227.667 133.667 183.180 133.667 C 158.713 133.667,138.575 133.712,138.430 133.768 C 138.190 133.860,138.167 141.902,138.167 223.268 L 138.167 312.667 114.000 312.667 L 89.834 312.667 89.792 223.292 L 89.749 133.917 89.709 223.417 L 89.668 312.917 114.000 312.917 L 138.332 312.917 138.333 223.525 C 138.334 174.360,138.376 134.066,138.427 133.984 C 138.482 133.895,156.837 133.833,183.177 133.833 L 227.834 133.833 227.792 109.458 L 227.750 85.083 113.875 85.042 C 37.986 85.014,0.000 85.055,0.000 85.167 M266.833 86.667 L 263.917 86.762 267.375 86.798 C 269.593 86.821,270.833 86.774,270.833 86.667 C 270.833 86.575,270.590 86.516,270.292 86.536 C 269.994 86.555,268.438 86.614,266.833 86.667 M282.250 86.671 C 278.972 86.732,280.852 86.769,288.569 86.796 C 294.612 86.816,299.524 86.803,299.486 86.766 C 299.365 86.648,287.098 86.580,282.250 86.671 M303.714 86.623 C 304.245 86.657,305.070 86.656,305.548 86.623 C 306.026 86.589,305.592 86.562,304.583 86.562 C 303.575 86.563,303.184 86.590,303.714 86.623 M310.428 94.736 C 310.468 99.311,310.500 104.655,310.500 106.611 C 310.500 109.141,310.554 110.167,310.688 110.167 C 310.818 110.167,310.845 109.869,310.775 109.208 C 310.720 108.681,310.659 104.162,310.641 99.167 C 310.623 94.171,310.551 89.258,310.482 88.250 C 310.413 87.242,310.389 90.160,310.428 94.736 M261.793 92.708 C 261.823 95.848,261.872 98.567,261.901 98.750 C 261.931 98.933,261.965 96.365,261.977 93.042 C 261.990 89.719,261.941 87.000,261.868 87.000 C 261.796 87.000,261.762 89.569,261.793 92.708 M261.905 108.750 C 261.905 110.950,261.929 111.827,261.958 110.699 C 261.987 109.571,261.987 107.771,261.958 106.699 C 261.929 105.627,261.905 106.550,261.905 108.750 M310.601 111.264 C 310.472 111.601,310.513 132.287,310.658 139.833 L 310.769 145.583 310.831 139.167 C 310.865 135.637,310.864 132.075,310.830 131.250 C 310.796 130.425,310.764 125.531,310.759 120.375 C 310.754 115.219,310.739 111.000,310.726 111.000 C 310.713 111.000,310.657 111.119,310.601 111.264 M261.945 115.125 C 261.790 115.386,261.640 117.333,261.775 117.334 C 261.853 117.334,261.915 118.666,261.913 120.292 C 261.911 121.919,261.954 126.063,262.009 129.500 C 262.103 135.399,262.110 135.168,262.138 125.375 C 262.154 119.669,262.134 115.000,262.093 115.000 C 262.053 115.000,261.986 115.056,261.945 115.125 M22.278 133.792 C 34.577 133.815,54.752 133.815,67.112 133.792 C 79.471 133.768,69.408 133.749,44.750 133.749 C 20.092 133.749,9.979 133.768,22.278 133.792 M140.250 134.167 L 138.583 134.269 140.202 134.301 L 141.820 134.333 141.879 135.625 L 141.938 136.917 141.947 135.458 C 141.952 134.656,141.947 134.015,141.936 134.032 C 141.926 134.050,141.167 134.111,140.250 134.167 M151.714 137.250 L 151.737 140.417 151.789 137.381 L 151.841 134.345 153.462 134.297 L 155.083 134.248 153.387 134.166 L 151.691 134.083 151.714 137.250 M157.045 142.250 L 157.077 150.417 157.124 142.375 L 157.170 134.333 165.085 134.333 L 173.000 134.333 173.000 135.831 L 173.000 137.329 166.667 137.376 L 160.333 137.423 166.708 137.420 L 173.083 137.417 173.110 135.750 L 173.137 134.083 165.074 134.083 L 157.012 134.083 157.045 142.250 M151.392 135.583 C 151.392 136.408,151.420 136.767,151.455 136.380 C 151.490 135.993,151.490 135.318,151.456 134.880 C 151.422 134.442,151.393 134.758,151.392 135.583 M154.833 143.333 L 154.833 150.167 153.337 150.167 L 151.841 150.167 151.791 147.042 L 151.742 143.917 151.704 147.167 L 151.667 150.417 153.326 150.417 L 154.986 150.417 154.996 143.458 C 155.002 139.631,154.968 136.500,154.920 136.500 C 154.872 136.500,154.833 139.575,154.833 143.333 M160.226 139.083 C 160.225 139.908,160.254 140.267,160.288 139.880 C 160.323 139.493,160.324 138.818,160.289 138.380 C 160.255 137.942,160.226 138.258,160.226 139.083 M147.375 140.457 C 147.994 140.489,149.006 140.489,149.625 140.457 C 150.244 140.425,149.737 140.399,148.500 140.399 C 147.262 140.399,146.756 140.425,147.375 140.457 M165.882 140.457 C 166.504 140.489,167.479 140.489,168.049 140.457 C 168.618 140.424,168.108 140.398,166.917 140.398 C 165.725 140.398,165.259 140.425,165.882 140.457 M165.583 140.667 L 160.417 140.757 165.536 140.795 L 170.655 140.833 170.709 142.458 L 170.764 144.083 170.798 142.292 C 170.818 141.306,170.815 140.517,170.792 140.538 C 170.769 140.559,168.425 140.617,165.583 140.667 M144.458 140.791 C 145.765 140.819,147.902 140.819,149.208 140.791 C 150.515 140.763,149.446 140.740,146.833 140.740 C 144.221 140.740,143.152 140.763,144.458 140.791 M262.072 146.500 C 262.072 148.746,262.096 149.665,262.125 148.542 C 262.153 147.419,262.153 145.581,262.125 144.458 C 262.096 143.335,262.072 144.254,262.072 146.500 M160.167 145.500 C 160.167 146.356,160.199 147.023,160.238 146.984 C 160.358 146.865,160.391 144.169,160.275 144.053 C 160.215 143.993,160.167 144.644,160.167 145.500 M142.214 144.917 C 142.216 145.375,142.248 145.543,142.286 145.289 C 142.325 145.036,142.324 144.661,142.284 144.456 C 142.244 144.251,142.213 144.458,142.214 144.917 M169.275 147.042 C 169.318 147.110,170.174 147.167,171.177 147.167 L 173.000 147.167 173.000 148.665 L 173.000 150.162 167.042 150.206 L 161.083 150.250 167.125 150.333 L 173.167 150.417 173.167 148.718 L 173.167 147.020 171.182 146.968 C 170.091 146.940,169.233 146.973,169.275 147.042 M310.690 160.431 C 310.704 166.106,310.769 173.338,310.836 176.500 C 310.906 179.812,310.926 175.466,310.882 166.250 C 310.840 157.450,310.775 150.219,310.736 150.181 C 310.698 150.142,310.677 154.755,310.690 160.431 M166.549 150.624 C 167.171 150.656,168.146 150.656,168.715 150.623 C 169.284 150.591,168.775 150.564,167.583 150.565 C 166.392 150.565,165.926 150.592,166.549 150.624 M262.088 162.542 C 262.150 168.523,262.230 173.448,262.267 173.486 C 262.303 173.524,262.333 168.631,262.333 162.611 C 262.333 154.915,262.280 151.667,262.154 151.667 C 262.027 151.667,262.008 154.825,262.088 162.542 M262.091 180.083 C 262.131 181.275,262.210 189.000,262.266 197.250 C 262.323 205.500,262.409 212.287,262.458 212.333 C 262.609 212.476,262.322 179.461,262.166 178.667 C 262.061 178.135,262.039 178.547,262.091 180.083 M310.843 198.681 C 310.848 204.585,310.914 209.717,310.989 210.083 C 311.064 210.450,311.091 205.650,311.048 199.417 C 311.006 193.183,310.941 188.052,310.903 188.014 C 310.865 187.976,310.838 192.776,310.843 198.681 M311.071 215.333 C 311.071 217.304,311.095 218.110,311.124 217.125 C 311.154 216.140,311.154 214.527,311.124 213.542 C 311.095 212.556,311.071 213.362,311.071 215.333 M262.262 215.333 C 262.303 216.296,262.380 228.051,262.434 241.456 L 262.530 265.828 258.057 265.875 L 253.583 265.922 258.021 265.961 C 261.417 265.991,262.495 265.951,262.611 265.792 C 262.809 265.518,262.555 216.890,262.345 215.000 L 262.187 213.583 262.262 215.333 M311.029 236.514 C 311.046 242.510,311.107 246.892,311.167 246.250 C 311.238 245.473,311.292 245.278,311.327 245.667 C 311.367 246.114,311.396 246.160,311.453 245.863 C 311.493 245.650,311.475 245.350,311.411 245.196 C 311.348 245.042,311.263 240.607,311.223 235.339 C 311.184 230.072,311.117 225.728,311.075 225.687 C 311.034 225.645,311.013 230.517,311.029 236.514 M327.861 248.461 C 327.839 248.630,326.199 248.664,319.836 248.628 L 311.840 248.583 311.840 256.750 L 311.840 264.917 319.878 264.833 L 327.917 264.750 327.943 263.083 L 327.970 261.417 321.575 261.462 L 315.179 261.508 315.121 260.003 L 315.063 258.499 315.073 260.041 L 315.083 261.583 321.458 261.627 L 327.833 261.671 327.833 263.169 L 327.833 264.667 319.917 264.667 L 312.000 264.667 312.000 256.750 L 312.000 248.833 319.917 248.833 L 327.833 248.833 327.833 250.407 C 327.833 251.272,327.890 252.015,327.958 252.058 C 328.027 252.101,328.063 251.524,328.038 250.776 C 327.988 249.247,327.904 248.143,327.861 248.461 M348.128 256.708 L 348.083 265.000 349.778 265.000 L 351.473 265.000 351.493 261.891 C 351.504 260.181,351.551 258.718,351.599 258.641 C 351.647 258.563,351.607 258.500,351.510 258.500 C 351.392 258.500,351.333 259.524,351.333 261.583 L 351.333 264.667 349.833 264.667 L 348.333 264.667 348.333 256.673 L 348.333 248.679 349.958 248.630 L 351.583 248.582 349.878 248.499 L 348.172 248.417 348.128 256.708 M361.017 248.450 C 361.029 248.523,361.031 250.026,361.020 251.789 L 361.000 254.995 356.208 255.043 L 351.417 255.091 356.250 255.087 L 361.083 255.083 361.129 251.875 L 361.174 248.667 362.669 248.667 L 364.163 248.667 364.210 256.708 L 364.256 264.750 364.289 256.562 L 364.321 248.374 362.658 248.346 C 361.743 248.330,361.005 248.377,361.017 248.450 M366.333 256.708 L 366.333 265.000 367.990 265.000 L 369.647 265.000 369.620 260.458 L 369.593 255.917 369.544 260.292 L 369.495 264.667 367.997 264.667 L 366.500 264.667 366.500 256.673 L 366.500 248.679 368.042 248.630 L 369.583 248.582 367.958 248.499 L 366.333 248.417 366.333 256.708 M377.417 248.495 L 371.417 248.590 379.708 248.628 C 384.269 248.649,388.000 248.603,388.000 248.524 C 388.000 248.364,386.087 248.359,377.417 248.495 M338.083 248.667 L 333.250 248.758 338.125 248.796 C 341.289 248.820,343.000 248.775,343.000 248.667 C 343.000 248.575,342.981 248.517,342.958 248.538 C 342.935 248.559,340.742 248.617,338.083 248.667 M366.062 250.167 C 366.062 251.129,366.089 251.523,366.123 251.042 C 366.157 250.560,366.157 249.773,366.123 249.292 C 366.089 248.810,366.062 249.204,366.062 250.167 M344.037 248.974 C 343.885 249.070,343.956 249.165,344.287 249.307 C 344.687 249.478,344.710 249.474,344.461 249.278 C 344.302 249.153,344.221 249.002,344.280 248.942 C 344.430 248.792,344.295 248.810,344.037 248.974 M330.706 249.736 C 330.644 249.835,330.579 249.992,330.562 250.083 C 330.546 250.175,330.482 250.400,330.420 250.583 L 330.308 250.917 330.510 250.583 C 330.621 250.400,330.853 250.094,331.026 249.903 C 331.289 249.611,331.298 249.556,331.079 249.556 C 330.936 249.556,330.768 249.637,330.706 249.736 M311.189 253.042 C 311.177 254.944,311.226 256.500,311.299 256.500 C 311.420 256.500,311.390 250.701,311.265 249.917 C 311.236 249.733,311.202 251.140,311.189 253.042 M345.589 250.471 C 345.651 250.593,345.763 250.893,345.837 251.138 C 345.945 251.495,345.974 251.516,345.986 251.240 C 345.994 251.051,345.882 250.751,345.738 250.574 C 345.593 250.396,345.526 250.350,345.589 250.471 M387.686 251.208 L 387.667 251.667 381.292 251.705 L 374.917 251.744 381.333 251.830 C 388.318 251.924,388.022 251.961,387.781 251.040 C 387.735 250.864,387.698 250.930,387.686 251.208 M351.395 253.167 C 351.395 254.129,351.423 254.523,351.456 254.042 C 351.490 253.560,351.490 252.773,351.456 252.292 C 351.423 251.810,351.395 252.204,351.395 253.167 M330.074 256.750 C 330.074 259.592,330.097 260.778,330.125 259.385 C 330.152 257.993,330.153 255.668,330.125 254.219 C 330.097 252.769,330.074 253.908,330.074 256.750 M346.033 252.875 L 346.000 254.167 344.500 254.167 L 343.000 254.167 343.000 253.270 C 343.000 252.353,342.672 251.753,342.406 252.184 C 342.330 252.307,342.352 252.341,342.463 252.273 C 342.733 252.106,342.810 252.335,342.849 253.426 L 342.884 254.417 344.452 254.363 C 346.256 254.302,346.207 254.349,346.124 252.733 L 346.065 251.583 346.033 252.875 M315.071 252.056 C 315.024 252.178,315.011 252.909,315.042 253.681 L 315.099 255.083 315.133 253.546 L 315.167 252.009 317.542 251.958 L 319.917 251.907 317.536 251.870 C 315.680 251.841,315.137 251.882,315.071 252.056 M334.875 251.957 C 335.494 251.989,336.506 251.989,337.125 251.957 C 337.744 251.925,337.237 251.899,336.000 251.899 C 334.762 251.899,334.256 251.925,334.875 251.957 M371.399 254.167 C 371.399 255.404,371.425 255.910,371.457 255.292 C 371.489 254.673,371.489 253.660,371.457 253.042 C 371.425 252.423,371.399 252.929,371.399 254.167 M374.726 253.417 C 374.725 254.242,374.754 254.600,374.788 254.213 C 374.823 253.827,374.824 253.152,374.789 252.713 C 374.755 252.275,374.726 252.592,374.726 253.417 M333.205 256.688 C 333.170 260.744,333.192 261.146,333.458 261.355 C 333.716 261.557,333.726 261.553,333.544 261.320 C 333.396 261.130,333.326 259.827,333.292 256.653 L 333.244 252.250 333.205 256.688 M375.056 253.500 C 375.056 254.188,375.085 254.469,375.121 254.125 C 375.157 253.781,375.157 253.219,375.121 252.875 C 375.085 252.531,375.056 252.813,375.056 253.500 M325.531 256.542 L 325.500 258.167 320.375 258.205 L 315.250 258.243 320.417 258.330 L 325.583 258.417 325.633 257.536 C 325.661 257.051,325.656 256.263,325.623 255.786 C 325.587 255.277,325.549 255.591,325.531 256.542 M377.635 255.125 C 379.131 255.152,381.531 255.152,382.969 255.125 C 384.407 255.097,383.183 255.074,380.250 255.074 C 377.317 255.074,376.140 255.097,377.635 255.125 M356.246 258.290 L 360.993 258.338 361.043 261.544 L 361.094 264.750 361.089 261.500 L 361.083 258.250 356.292 258.246 L 351.500 258.242 356.246 258.290 M375.025 258.247 C 375.137 258.359,385.519 258.370,385.631 258.258 C 385.681 258.208,383.297 258.167,380.333 258.167 C 377.369 258.167,374.981 258.203,375.025 258.247 M321.034 258.623 C 321.649 258.655,322.699 258.656,323.368 258.624 C 324.036 258.592,323.533 258.566,322.250 258.566 C 320.967 258.565,320.420 258.591,321.034 258.623 M375.048 259.250 C 375.049 259.708,375.081 259.876,375.120 259.623 C 375.158 259.369,375.157 258.994,375.117 258.789 C 375.078 258.584,375.046 258.792,375.048 259.250 M342.849 260.078 C 342.829 260.626,342.724 261.188,342.615 261.328 C 342.441 261.552,342.453 261.555,342.708 261.355 C 342.922 261.187,343.000 260.885,343.000 260.230 L 343.000 259.333 344.493 259.333 L 345.986 259.333 346.046 260.542 L 346.106 261.750 346.114 260.417 L 346.123 259.083 344.504 259.083 L 342.885 259.083 342.849 260.078 M376.382 261.290 C 377.004 261.323,377.979 261.322,378.549 261.290 C 379.118 261.257,378.608 261.231,377.417 261.231 C 376.225 261.232,375.759 261.258,376.382 261.290 M387.778 261.278 C 387.717 261.339,387.667 262.161,387.667 263.105 L 387.667 264.821 386.083 264.879 L 384.499 264.936 386.125 264.926 L 387.750 264.917 387.833 263.041 C 387.879 262.010,387.910 261.166,387.903 261.166 C 387.895 261.166,387.839 261.217,387.778 261.278 M335.865 261.624 C 337.029 261.653,338.979 261.653,340.198 261.625 C 341.418 261.596,340.467 261.573,338.083 261.573 C 335.700 261.573,334.702 261.596,335.865 261.624 M330.655 263.311 C 330.747 263.483,330.805 263.651,330.786 263.686 C 330.766 263.721,330.781 263.732,330.818 263.710 C 330.855 263.688,331.001 263.763,331.142 263.876 C 331.282 263.990,331.219 263.840,331.001 263.542 C 330.561 262.941,330.399 262.833,330.655 263.311 M311.221 264.417 C 311.222 265.058,311.252 265.300,311.288 264.955 C 311.324 264.609,311.324 264.084,311.287 263.788 C 311.250 263.492,311.221 263.775,311.221 264.417 M345.095 263.654 C 344.819 263.959,344.819 263.973,345.097 263.932 C 345.257 263.908,345.407 263.764,345.430 263.611 C 345.482 263.258,345.449 263.263,345.095 263.654 M333.333 264.792 C 333.333 264.860,334.739 264.897,336.458 264.874 C 342.242 264.795,342.779 264.737,338.042 264.702 C 335.452 264.682,333.333 264.723,333.333 264.792 M371.667 264.833 C 371.667 264.935,372.444 265.000,373.667 265.000 C 374.889 265.000,375.667 264.935,375.667 264.833 C 375.667 264.731,374.889 264.667,373.667 264.667 C 372.444 264.667,371.667 264.731,371.667 264.833 M352.167 265.353 C 353.952 265.501,357.286 265.498,358.167 265.348 C 358.605 265.273,357.255 265.226,354.917 265.235 C 352.538 265.244,351.423 265.292,352.167 265.353 M374.417 265.363 C 375.210 265.503,396.765 265.543,396.626 265.404 C 396.573 265.351,391.404 265.293,385.140 265.276 C 378.875 265.259,374.050 265.298,374.417 265.363 M398.958 265.284 C 399.165 265.324,399.502 265.324,399.708 265.284 C 399.915 265.245,399.746 265.212,399.333 265.212 C 398.921 265.212,398.752 265.245,398.958 265.284 M318.250 265.500 L 316.417 265.601 318.083 265.612 C 319.000 265.618,320.313 265.570,321.000 265.505 L 322.250 265.387 321.167 265.393 C 320.571 265.397,319.258 265.445,318.250 265.500 M332.583 265.502 C 329.487 265.561,331.978 265.604,339.986 265.629 C 346.624 265.650,352.024 265.637,351.986 265.600 C 351.864 265.482,337.430 265.410,332.583 265.502 M365.802 265.458 C 367.114 265.486,369.214 265.486,370.468 265.458 C 371.723 265.430,370.650 265.407,368.083 265.407 C 365.517 265.407,364.490 265.430,365.802 265.458 M358.042 265.615 C 358.202 265.657,358.465 265.657,358.625 265.615 C 358.785 265.573,358.654 265.539,358.333 265.539 C 358.012 265.539,357.881 265.573,358.042 265.615 M235.390 265.792 C 235.431 265.860,234.142 265.917,232.524 265.917 C 230.907 265.917,226.733 265.960,223.250 266.012 C 217.297 266.102,217.540 266.110,227.302 266.137 C 234.793 266.159,237.655 266.116,237.573 265.984 C 237.511 265.884,237.207 265.831,236.897 265.867 C 236.587 265.903,236.333 265.873,236.333 265.800 C 236.333 265.727,236.104 265.667,235.823 265.667 C 235.543 265.667,235.348 265.723,235.390 265.792 M247.288 265.787 C 247.584 265.824,248.109 265.824,248.455 265.788 C 248.800 265.752,248.558 265.722,247.917 265.721 C 247.275 265.721,246.992 265.750,247.288 265.787 M311.875 265.786 C 312.127 265.824,312.540 265.824,312.792 265.786 C 313.044 265.748,312.837 265.717,312.333 265.717 C 311.829 265.717,311.623 265.748,311.875 265.786 M206.167 266.000 L 202.083 266.092 206.000 266.117 C 208.154 266.131,210.254 266.082,210.667 266.009 C 211.306 265.895,211.331 265.877,210.833 265.891 C 210.512 265.900,208.412 265.949,206.167 266.000 M242.375 265.957 C 243.177 265.988,244.490 265.988,245.292 265.957 C 246.094 265.927,245.438 265.902,243.833 265.902 C 242.229 265.902,241.573 265.927,242.375 265.957 M173.875 266.115 C 174.035 266.157,174.298 266.157,174.458 266.115 C 174.619 266.073,174.487 266.039,174.167 266.039 C 173.846 266.039,173.715 266.073,173.875 266.115 M184.833 266.170 C 180.052 266.242,180.915 266.263,189.958 266.295 C 197.227 266.321,200.833 266.277,200.833 266.164 C 200.833 265.991,196.598 265.993,184.833 266.170 M173.103 286.042 C 173.147 296.973,173.199 307.942,173.218 310.417 L 173.254 314.917 176.419 314.923 L 179.583 314.928 176.542 314.877 C 174.869 314.849,173.493 314.809,173.485 314.788 C 173.351 314.457,173.275 266.388,173.408 266.294 C 173.513 266.221,173.471 266.171,173.304 266.169 C 173.044 266.167,173.030 267.523,173.103 286.042 M362.583 313.944 C 360.567 313.964,338.179 314.058,312.833 314.155 C 257.684 314.366,242.667 314.484,242.667 314.705 C 242.667 314.804,243.107 314.828,243.792 314.767 C 244.892 314.669,259.495 314.580,302.083 314.410 C 313.725 314.363,330.112 314.291,338.500 314.249 C 346.887 314.206,364.133 314.131,376.824 314.081 C 389.515 314.031,399.934 313.955,399.977 313.912 C 400.049 313.839,371.005 313.865,362.583 313.944 M211.889 314.658 C 208.757 314.709,206.132 314.814,206.055 314.892 C 205.979 314.970,206.479 314.988,207.167 314.933 C 207.854 314.877,215.795 314.813,224.814 314.791 C 233.832 314.768,240.995 314.703,240.730 314.645 C 240.155 314.519,219.927 314.528,211.889 314.658 M179.751 314.832 C 179.654 314.989,202.315 314.887,202.486 314.730 C 202.524 314.695,197.447 314.667,191.204 314.667 C 183.858 314.667,179.817 314.725,179.751 314.832 " stroke="none" fill="#23b4fc" fill-rule="evenodd"></path></g></svg>